<svg xmlns="http://www.w3.org/2000/svg" xmlns:xlink="http://www.w3.org/1999/xlink" width="24" height="24" viewBox="0 0 24 24">
  <defs>
    <clipPath id="clip-path">
      <path id="folder-solid" d="M21.75,67h-9l-3-3H2.25A2.25,2.25,0,0,0,0,66.25v13.5A2.25,2.25,0,0,0,2.25,82h19.5A2.25,2.25,0,0,0,24,79.75V69.25A2.25,2.25,0,0,0,21.75,67Z" transform="translate(44 242)" fill="#f3f2ef" stroke="#f3f2ef" stroke-width="1"/>
    </clipPath>
  </defs>
  <g id="icon-folder-share" transform="translate(-44 -295)">
    <g id="Group_80" data-name="Group 80" transform="translate(0 88)">
      <rect id="Rectangle_21" data-name="Rectangle 21" width="24" height="24" transform="translate(44 207)" fill="rgba(255,255,255,0)"/>
    </g>
    <g id="Group_77" data-name="Group 77" transform="translate(0 -8)">
      <g id="folder-solid-2" data-name="folder-solid" transform="translate(44 242)" fill="none">
        <path d="M21.75,67h-9l-3-3H2.25A2.25,2.25,0,0,0,0,66.25v13.5A2.25,2.25,0,0,0,2.25,82h19.5A2.25,2.25,0,0,0,24,79.75V69.25A2.25,2.25,0,0,0,21.75,67Z" stroke="none"/>
        <path d="M 2.25 65 C 1.560749053955078 65 1 65.56075286865234 1 66.25 L 1 79.75 C 1 80.43924713134766 1.560749053955078 81 2.25 81 L 21.75 81 C 22.43925094604492 81 23 80.43924713134766 23 79.75 L 23 69.25 C 23 68.56075286865234 22.43925094604492 68 21.75 68 L 12.75 68 L 12.33578968048096 68 L 12.04288959503174 67.70710754394531 L 9.335780143737793 65 L 2.25 65 M 2.25 64 L 9.75 64 L 12.75 67 L 21.75 67 C 22.99266052246094 67 24 68.00733947753906 24 69.25 L 24 79.75 C 24 80.99266052246094 22.99266052246094 82 21.75 82 L 2.25 82 C 1.007339477539063 82 0 80.99266052246094 0 79.75 L 0 66.25 C 0 65.00733947753906 1.007339477539063 64 2.25 64 Z" stroke="none" fill="#f3f2ef"/>
      </g>
      <circle id="Ellipse_10" data-name="Ellipse 10" cx="2" cy="2" r="2" transform="translate(54 314)" fill="#f3f2ef"/>
      <g id="Mask_Group_2" data-name="Mask Group 2" clip-path="url(#clip-path)">
        <rect id="Rectangle_38" data-name="Rectangle 38" width="10" height="8" rx="4" transform="translate(51 319)" fill="#f3f2ef"/>
      </g>
    </g>
  </g>
</svg>
