<svg  xmlns="http://www.w3.org/2000/svg" width="24" height="24" viewBox="0 0 24 24">
  <g id="icon-star-fill" transform="translate(-44 -339)">
    <g id="Group_81" data-name="Group 81" transform="translate(0 132)">
      <rect id="Rectangle_21" data-name="Rectangle 21" width="24" height="24" transform="translate(44 207)" fill="none"/>
    </g>
    <g id="Path_2" data-name="Path 2" transform="translate(38 332.608)" fill="#ffd46e">
      <path d="M18,8.392l3.09,6.261,6.91,1-5,4.874,1.18,6.882L18,24.163l-6.18,3.249L13,20.531,8,15.657l6.91-1Z" stroke="none"/>
      <path d="M 18 10.65110778808594 L 15.80657005310059 15.09548377990723 L 15.57390022277832 15.56692314147949 L 15.05363082885742 15.64252281188965 L 10.14896583557129 16.35521507263184 L 13.6980094909668 19.81467437744141 L 14.0744800567627 20.18164253234863 L 13.98560905456543 20.69981384277344 L 13.14779281616211 25.58465957641602 L 17.53466033935547 23.27835273742676 L 18 23.0337028503418 L 18.46533966064453 23.27835273742676 L 22.85220718383789 25.58465957641602 L 22.01438903808594 20.69981384277344 L 21.9255199432373 20.18164253234863 L 22.3019905090332 19.81467437744141 L 25.85103225708008 16.35521507263184 L 20.94636917114258 15.64252281188965 L 20.42609977722168 15.56692314147949 L 20.19342994689941 15.09548377990723 L 18 10.65110778808594 M 18 8.391542434692383 L 21.09016990661621 14.65291213989258 L 28 15.65697288513184 L 23 20.53076171875 L 24.18033981323242 27.41267395019531 L 18 24.16348266601563 L 11.81966018676758 27.41267395019531 L 13 20.53076171875 L 8 15.65697288513184 L 14.90983009338379 14.65291213989258 L 18 8.391542434692383 Z" stroke="none" fill="#ffd46e"/>
    </g>
  </g>
</svg>
