<svg xmlns="http://www.w3.org/2000/svg" width="24" height="24" viewBox="0 0 24 24">
  <g id="icon-folder-add" transform="translate(-44 -251)">
    <g id="Group_79" data-name="Group 79" transform="translate(0 44)">
      <rect id="Rectangle_21" data-name="Rectangle 21" width="24" height="24" transform="translate(44 207)" fill="rgba(255,255,255,0)"/>
    </g>
    <g id="Group_85" data-name="Group 85" transform="translate(0 -4)">
      <g id="folder-solid" transform="translate(44 194)" fill="none">
        <path d="M21.75,67h-9l-3-3H2.25A2.25,2.25,0,0,0,0,66.25v13.5A2.25,2.25,0,0,0,2.25,82h19.5A2.25,2.25,0,0,0,24,79.75V69.25A2.25,2.25,0,0,0,21.75,67Z" stroke="none"/>
        <path d="M 2.25 65 C 1.560749053955078 65 1 65.56075286865234 1 66.25 L 1 79.75 C 1 80.43924713134766 1.560749053955078 81 2.25 81 L 21.75 81 C 22.43925094604492 81 23 80.43924713134766 23 79.75 L 23 69.25 C 23 68.56075286865234 22.43925094604492 68 21.75 68 L 12.75 68 L 12.33578968048096 68 L 12.04288959503174 67.70710754394531 L 9.335780143737793 65 L 2.25 65 M 2.25 64 L 9.75 64 L 12.75 67 L 21.75 67 C 22.99266052246094 67 24 68.00733947753906 24 69.25 L 24 79.75 C 24 80.99266052246094 22.99266052246094 82 21.75 82 L 2.25 82 C 1.007339477539063 82 0 80.99266052246094 0 79.75 L 0 66.25 C 0 65.00733947753906 1.007339477539063 64 2.25 64 Z" stroke="none" fill="#f3f2ef"/>
      </g>
      <g id="Group_73" data-name="Group 73" transform="translate(0.5 -1)">
        <line id="Line_2" data-name="Line 2" x2="8" transform="translate(51.5 269.5)" fill="none" stroke="#f3f2ef" stroke-width="2"/>
        <line id="Line_3" data-name="Line 3" x2="8" transform="translate(55.5 265.5) rotate(90)" fill="none" stroke="#f3f2ef" stroke-width="2"/>
      </g>
    </g>
  </g>
</svg>
